<svg xmlns="http://www.w3.org/2000/svg" viewBox="0 0 1500 1950" width="1500" height="1950" font-family="'Segoe UI', Arial, Helvetica, sans-serif">
  <defs>
    <marker id="arrow" markerWidth="10" markerHeight="7" refX="9" refY="3.5" orient="auto">
      <polygon points="0 0, 10 3.5, 0 7" fill="#555"/>
    </marker>
    <marker id="arrow-green" markerWidth="10" markerHeight="7" refX="9" refY="3.5" orient="auto">
      <polygon points="0 0, 10 3.5, 0 7" fill="#2E7D32"/>
    </marker>
    <marker id="arrow-blue" markerWidth="10" markerHeight="7" refX="9" refY="3.5" orient="auto">
      <polygon points="0 0, 10 3.5, 0 7" fill="#1565C0"/>
    </marker>
    <marker id="arrow-red" markerWidth="10" markerHeight="7" refX="9" refY="3.5" orient="auto">
      <polygon points="0 0, 10 3.5, 0 7" fill="#E65100"/>
    </marker>
    <marker id="arrow-teal" markerWidth="10" markerHeight="7" refX="9" refY="3.5" orient="auto">
      <polygon points="0 0, 10 3.5, 0 7" fill="#00695C"/>
    </marker>
    <marker id="arrow-purple" markerWidth="10" markerHeight="7" refX="9" refY="3.5" orient="auto">
      <polygon points="0 0, 10 3.5, 0 7" fill="#7B1FA2"/>
    </marker>
    <filter id="shadow" x="-2%" y="-2%" width="104%" height="104%">
      <feDropShadow dx="1" dy="1" stdDeviation="2" flood-opacity="0.15"/>
    </filter>
  </defs>

  <!-- Background -->
  <rect width="1500" height="1950" fill="#fafafa" rx="0"/>

  <!-- ======== TITLE ======== -->
  <text x="750" y="35" text-anchor="middle" font-size="24" font-weight="bold" fill="#1a1a1a">BA Process Overhaul — Steve's 3-Step Model</text>
  <text x="750" y="58" text-anchor="middle" font-size="12" fill="#666">Deterministic Match → No Match (New BA) → Possible Match (Exception Queue) | Snowflake-native HITL feedback at every stage</text>

  <!-- ======== DATA PREPARATION ======== -->
  <rect x="120" y="80" width="1260" height="120" rx="10" fill="#E3F2FD" stroke="#1565C0" stroke-width="2" filter="url(#shadow)"/>
  <text x="750" y="105" text-anchor="middle" font-size="16" font-weight="bold" fill="#0D47A1">Data Preparation — Normalize Both Sources</text>

  <rect x="145" y="115" width="280" height="55" rx="6" fill="#BBDEFB" stroke="#1565C0" stroke-width="1"/>
  <text x="285" y="135" text-anchor="middle" font-size="11" font-weight="bold">Normalize Seller Name &amp; Address</text>
  <text x="285" y="150" text-anchor="middle" font-size="9" fill="#333">Standardize suffixes, abbreviations,</text>
  <text x="285" y="162" text-anchor="middle" font-size="9" fill="#333">casing, special characters</text>

  <rect x="455" y="115" width="280" height="55" rx="6" fill="#BBDEFB" stroke="#1565C0" stroke-width="1"/>
  <text x="595" y="135" text-anchor="middle" font-size="11" font-weight="bold">Normalize DEC Name &amp; Address</text>
  <text x="595" y="150" text-anchor="middle" font-size="9" fill="#333">Same normalization pipeline</text>
  <text x="595" y="162" text-anchor="middle" font-size="9" fill="#333">applied to DEC records</text>

  <rect x="765" y="115" width="280" height="55" rx="6" fill="#BBDEFB" stroke="#1565C0" stroke-width="1"/>
  <text x="905" y="135" text-anchor="middle" font-size="11" font-weight="bold">Extract Tax ID (TIN)</text>
  <text x="905" y="150" text-anchor="middle" font-size="9" fill="#333">Clean, validate, prepare</text>
  <text x="905" y="162" text-anchor="middle" font-size="9" fill="#333">for deterministic comparison</text>

  <rect x="1075" y="115" width="280" height="55" rx="6" fill="#FFF9C4" stroke="#F9A825" stroke-width="1"/>
  <text x="1215" y="138" text-anchor="middle" font-size="10" font-weight="bold" fill="#E65100">Key Rule:</text>
  <text x="1215" y="155" text-anchor="middle" font-size="9" fill="#E65100">No combining based solely</text>
  <text x="1215" y="167" text-anchor="middle" font-size="9" fill="#E65100">on TIN — must also match Name</text>

  <!-- Arrow: Input → Step 1 -->
  <line x1="750" y1="200" x2="750" y2="230" stroke="#1565C0" stroke-width="2" marker-end="url(#arrow-blue)"/>

  <!-- ======== STEP 1: DETERMINISTIC MATCH ======== -->
  <rect x="120" y="240" width="1260" height="310" rx="10" fill="#d5e8d4" stroke="#2E7D32" stroke-width="2" filter="url(#shadow)"/>
  <rect x="135" y="250" width="80" height="26" rx="4" fill="#2E7D32"/>
  <text x="175" y="268" text-anchor="middle" font-size="13" font-weight="bold" fill="white">STEP 1</text>
  <text x="750" y="268" text-anchor="middle" font-size="16" font-weight="bold" fill="#1B5E20">Deterministic Match — 100% Confidence</text>

  <!-- Matching logic box -->
  <rect x="145" y="285" width="350" height="80" rx="6" fill="#C8E6C9" stroke="#2E7D32" stroke-width="1"/>
  <text x="320" y="305" text-anchor="middle" font-size="12" font-weight="bold">Compare: Tax ID + Normalized Name</text>
  <text x="160" y="322" font-size="10" fill="#333">• TIN must match exactly</text>
  <text x="160" y="337" font-size="10" fill="#333">• Name must meet deterministic threshold</text>
  <text x="160" y="352" font-size="10" fill="#333">• No combining on TIN alone</text>

  <!-- Arrow to 360 -->
  <line x1="495" y1="325" x2="535" y2="325" stroke="#2E7D32" stroke-width="1.5" marker-end="url(#arrow-green)"/>

  <!-- 360 View box -->
  <rect x="545" y="285" width="300" height="80" rx="6" fill="#C8E6C9" stroke="#2E7D32" stroke-width="1"/>
  <text x="695" y="305" text-anchor="middle" font-size="12" font-weight="bold">Produce 360° View</text>
  <text x="560" y="322" font-size="10" fill="#333">• Matched DEC BA/Addseq</text>
  <text x="560" y="337" font-size="10" fill="#333">• Full record details</text>
  <text x="560" y="352" font-size="10" fill="#333">• Match evidence &amp; scores</text>

  <!-- HITL box for Step 1 -->
  <rect x="145" y="380" width="1210" height="155" rx="8" fill="#FFF8E1" stroke="#F9A825" stroke-width="1.5" stroke-dasharray="6 3"/>
  <rect x="160" y="390" width="72" height="22" rx="4" fill="#F9A825"/>
  <text x="196" y="406" text-anchor="middle" font-size="10" font-weight="bold" fill="white">HITL</text>
  <text x="400" y="406" font-size="13" font-weight="bold" fill="#E65100">Human-in-the-Loop: Business Unit Review &amp; Approval</text>

  <rect x="160" y="420" width="185" height="50" rx="5" fill="#FFF9C4" stroke="#F9A825" stroke-width="1"/>
  <text x="252" y="438" text-anchor="middle" font-size="10" font-weight="bold">BU Review</text>
  <text x="252" y="453" text-anchor="middle" font-size="9">Business Unit reviews</text>
  <text x="252" y="465" text-anchor="middle" font-size="9">360° matched pairs</text>

  <rect x="365" y="420" width="185" height="50" rx="5" fill="#FFF9C4" stroke="#F9A825" stroke-width="1"/>
  <text x="457" y="438" text-anchor="middle" font-size="10" font-weight="bold">Approve / Reject</text>
  <text x="457" y="453" text-anchor="middle" font-size="9">Confirm match or flag</text>
  <text x="457" y="465" text-anchor="middle" font-size="9">for re-evaluation</text>

  <rect x="570" y="420" width="195" height="50" rx="5" fill="#FFF9C4" stroke="#F9A825" stroke-width="1"/>
  <text x="667" y="438" text-anchor="middle" font-size="10" font-weight="bold">Write to Snowflake</text>
  <text x="667" y="453" text-anchor="middle" font-size="9">Approved results written</text>
  <text x="667" y="465" text-anchor="middle" font-size="9">directly — no Excel</text>

  <rect x="785" y="420" width="195" height="50" rx="5" fill="#FFF9C4" stroke="#F9A825" stroke-width="1"/>
  <text x="882" y="438" text-anchor="middle" font-size="10" font-weight="bold">Bypass Future UAT</text>
  <text x="882" y="453" text-anchor="middle" font-size="9">Once approved, no</text>
  <text x="882" y="465" text-anchor="middle" font-size="9">repeated reviews needed</text>

  <rect x="1000" y="420" width="195" height="50" rx="5" fill="#FFE0B2" stroke="#F9A825" stroke-width="1"/>
  <text x="1097" y="438" text-anchor="middle" font-size="10" font-weight="bold">Feed Learning Model</text>
  <text x="1097" y="453" text-anchor="middle" font-size="9">Decisions improve</text>
  <text x="1097" y="465" text-anchor="middle" font-size="9">future matching</text>

  <text x="750" y="505" text-anchor="middle" font-size="10" font-style="italic" fill="#E65100">Goal: Accelerate Step 1 with structured HITL so deterministic matches are resolved quickly and confidently</text>

  <!-- ======== ROUTING DIAMOND ======== -->
  <polygon points="750,565 900,600 750,635 600,600" fill="#fff2cc" stroke="#d6b656" stroke-width="2"/>
  <text x="750" y="605" text-anchor="middle" font-size="13" font-weight="bold">Route by Match Result</text>

  <!-- Arrow: Step 1 → Diamond -->
  <line x1="750" y1="550" x2="750" y2="565" stroke="#2E7D32" stroke-width="2" marker-end="url(#arrow-green)"/>

  <!-- Arrow: Diamond → Step 2 (left) -->
  <polyline points="600,600 380,600 380,660" fill="none" stroke="#1565C0" stroke-width="2" marker-end="url(#arrow-blue)"/>
  <text x="430" y="593" font-size="12" font-weight="bold" fill="#1565C0">NO MATCH</text>

  <!-- Arrow: Diamond → Step 3 (right) -->
  <polyline points="900,600 1120,600 1120,660" fill="none" stroke="#E65100" stroke-width="2" marker-end="url(#arrow-red)"/>
  <text x="940" y="593" font-size="12" font-weight="bold" fill="#E65100">POSSIBLE MATCH</text>

  <!-- ======== STEP 2: NO MATCH — NEW BA ======== -->
  <rect x="60" y="670" width="640" height="350" rx="10" fill="#dae8fc" stroke="#1565C0" stroke-width="2" filter="url(#shadow)"/>
  <rect x="75" y="680" width="80" height="26" rx="4" fill="#1565C0"/>
  <text x="115" y="698" text-anchor="middle" font-size="13" font-weight="bold" fill="white">STEP 2</text>
  <text x="380" y="698" text-anchor="middle" font-size="16" font-weight="bold" fill="#0D47A1">No Match — New BA Creation</text>

  <!-- 360 view -->
  <rect x="85" y="720" width="270" height="75" rx="6" fill="#BBDEFB" stroke="#1565C0" stroke-width="1"/>
  <text x="220" y="740" text-anchor="middle" font-size="11" font-weight="bold">Produce 360° View</text>
  <text x="100" y="757" font-size="10" fill="#333">• Seller BAs with no match</text>
  <text x="100" y="772" font-size="10" fill="#333">• Full record context</text>
  <text x="100" y="787" font-size="10" fill="#333">• Evidence of no-match decision</text>

  <!-- Arrow -->
  <line x1="355" y1="757" x2="395" y2="757" stroke="#1565C0" stroke-width="1.5" marker-end="url(#arrow-blue)"/>

  <!-- Generate new BA -->
  <rect x="405" y="720" width="270" height="75" rx="6" fill="#BBDEFB" stroke="#1565C0" stroke-width="1"/>
  <text x="540" y="740" text-anchor="middle" font-size="11" font-weight="bold">Generate New BA &amp; Addseq</text>
  <text x="420" y="757" font-size="10" fill="#333">• Systematic creation</text>
  <text x="420" y="772" font-size="10" fill="#333">• Full audit trail</text>
  <text x="420" y="787" font-size="10" fill="#333">• Ready for HITL approval</text>

  <!-- Step 2 HITL -->
  <rect x="85" y="810" width="590" height="145" rx="8" fill="#FFF8E1" stroke="#F9A825" stroke-width="1.5" stroke-dasharray="6 3"/>
  <rect x="100" y="820" width="72" height="22" rx="4" fill="#F9A825"/>
  <text x="136" y="836" text-anchor="middle" font-size="10" font-weight="bold" fill="white">HITL</text>
  <text x="320" y="836" font-size="13" font-weight="bold" fill="#E65100">Structured Approval &amp; Write-Back</text>

  <rect x="100" y="850" width="170" height="46" rx="5" fill="#FFF9C4" stroke="#F9A825" stroke-width="1"/>
  <text x="185" y="868" text-anchor="middle" font-size="10" font-weight="bold">Confirm New BA</text>
  <text x="185" y="883" text-anchor="middle" font-size="9">Verify no match was missed</text>

  <rect x="290" y="850" width="170" height="46" rx="5" fill="#FFF9C4" stroke="#F9A825" stroke-width="1"/>
  <text x="375" y="868" text-anchor="middle" font-size="10" font-weight="bold">Approve Creation</text>
  <text x="375" y="883" text-anchor="middle" font-size="9">Sign off on new BA+Addseq</text>

  <rect x="480" y="850" width="170" height="46" rx="5" fill="#FFF9C4" stroke="#F9A825" stroke-width="1"/>
  <text x="565" y="868" text-anchor="middle" font-size="10" font-weight="bold">Write to Snowflake</text>
  <text x="565" y="883" text-anchor="middle" font-size="9">New BAs created &amp; audited</text>

  <text x="380" y="935" text-anchor="middle" font-size="9" font-style="italic" fill="#E65100">Goal: Accelerate new BA creation with structured HITL — resolve quickly and confidently</text>

  <!-- ======== STEP 3: POSSIBLE MATCH — EXCEPTION QUEUE ======== -->
  <rect x="800" y="670" width="640" height="350" rx="10" fill="#FCE4EC" stroke="#C62828" stroke-width="2" filter="url(#shadow)"/>
  <rect x="815" y="680" width="80" height="26" rx="4" fill="#C62828"/>
  <text x="855" y="698" text-anchor="middle" font-size="13" font-weight="bold" fill="white">STEP 3</text>
  <text x="1120" y="698" text-anchor="middle" font-size="16" font-weight="bold" fill="#B71C1C">Possible Match — Exception Queue</text>

  <!-- Matching logic -->
  <rect x="825" y="720" width="280" height="75" rx="6" fill="#F8BBD0" stroke="#C62828" stroke-width="1"/>
  <text x="965" y="740" text-anchor="middle" font-size="11" font-weight="bold">Matching Logic</text>
  <text x="840" y="757" font-size="10" fill="#333">• TIN match AND/OR fuzzy name</text>
  <text x="840" y="772" font-size="10" fill="#333">• Seller non-norm vs DEC normalized</text>
  <text x="840" y="787" font-size="10" fill="#333">• Ambiguous address comparisons</text>

  <!-- Arrow -->
  <line x1="1105" y1="757" x2="1145" y2="757" stroke="#C62828" stroke-width="1.5" marker-end="url(#arrow-red)"/>

  <!-- Exception Queue -->
  <rect x="1155" y="720" width="250" height="75" rx="6" fill="#F8BBD0" stroke="#C62828" stroke-width="1"/>
  <text x="1280" y="740" text-anchor="middle" font-size="11" font-weight="bold">Exception Queue</text>
  <text x="1170" y="757" font-size="10" fill="#333">• Prioritized ambiguous cases</text>
  <text x="1170" y="772" font-size="10" fill="#333">• Controlled review routing</text>
  <text x="1170" y="787" font-size="10" fill="#333">• Full context provided</text>

  <!-- Step 3 HITL -->
  <rect x="825" y="810" width="590" height="145" rx="8" fill="#FFF8E1" stroke="#F9A825" stroke-width="1.5" stroke-dasharray="6 3"/>
  <rect x="840" y="820" width="72" height="22" rx="4" fill="#F9A825"/>
  <text x="876" y="836" text-anchor="middle" font-size="10" font-weight="bold" fill="white">HITL</text>
  <text x="1080" y="836" font-size="13" font-weight="bold" fill="#E65100">Controlled HITL Review for Validation</text>

  <rect x="840" y="850" width="175" height="46" rx="5" fill="#FFF9C4" stroke="#F9A825" stroke-width="1"/>
  <text x="927" y="868" text-anchor="middle" font-size="10" font-weight="bold">Review Evidence</text>
  <text x="927" y="883" text-anchor="middle" font-size="9">Side-by-side with scores</text>

  <rect x="1035" y="850" width="175" height="46" rx="5" fill="#FFF9C4" stroke="#F9A825" stroke-width="1"/>
  <text x="1122" y="868" text-anchor="middle" font-size="10" font-weight="bold">Decide: Match / New / Defer</text>
  <text x="1122" y="883" text-anchor="middle" font-size="9">Capture decision + reason</text>

  <rect x="1230" y="850" width="160" height="46" rx="5" fill="#FFF9C4" stroke="#F9A825" stroke-width="1"/>
  <text x="1310" y="868" text-anchor="middle" font-size="10" font-weight="bold">Write to Snowflake</text>
  <text x="1310" y="883" text-anchor="middle" font-size="9">Decisions with reasoning</text>

  <text x="1120" y="935" text-anchor="middle" font-size="9" font-style="italic" fill="#E65100">Only Step 3 + flagged exceptions require full HITL review — eliminates multiple UAT cycles</text>

  <!-- Arrows: Steps → Snowflake Framework -->
  <line x1="380" y1="1020" x2="380" y2="1060" stroke="#00695C" stroke-width="2" stroke-dasharray="6 3" marker-end="url(#arrow-teal)"/>
  <line x1="1120" y1="1020" x2="1120" y2="1060" stroke="#00695C" stroke-width="2" stroke-dasharray="6 3" marker-end="url(#arrow-teal)"/>

  <!-- ======== SNOWFLAKE HITL FRAMEWORK ======== -->
  <rect x="120" y="1070" width="1260" height="310" rx="10" fill="#E0F2F1" stroke="#00695C" stroke-width="2" filter="url(#shadow)"/>
  <text x="750" y="1098" text-anchor="middle" font-size="16" font-weight="bold" fill="#004D40">Snowflake-Native HITL Framework — Eliminating Excel</text>

  <!-- 1. Centralized Review Tables -->
  <rect x="145" y="1115" width="350" height="145" rx="6" fill="#B2DFDB" stroke="#00695C" stroke-width="1"/>
  <text x="320" y="1137" text-anchor="middle" font-size="13" font-weight="bold" fill="#004D40">1. Centralized Review Tables</text>
  <text x="160" y="1157" font-size="10">• Capture Match Type (Step 1, 2, or 3)</text>
  <text x="160" y="1174" font-size="10">• Store reviewer decisions</text>
  <text x="160" y="1191" font-size="10">• Capture override logic</text>
  <text x="160" y="1208" font-size="10">• Log normalization adjustments</text>
  <text x="160" y="1225" font-size="10">• Maintain rule versioning</text>

  <!-- 2. Direct Write-Back -->
  <rect x="525" y="1115" width="350" height="145" rx="6" fill="#B2DFDB" stroke="#00695C" stroke-width="1"/>
  <text x="700" y="1137" text-anchor="middle" font-size="13" font-weight="bold" fill="#004D40">2. Direct Write-Back</text>
  <text x="540" y="1157" font-size="10">• Decisions written directly to Snowflake</text>
  <text x="540" y="1174" font-size="10">• Cleanup rules in governed rules table</text>
  <text x="540" y="1191" font-size="10">• X-ref from validated Snowflake tables</text>
  <text x="540" y="1210" font-size="10" font-weight="bold" fill="#C62828">Eliminates:</text>
  <text x="540" y="1227" font-size="9" fill="#C62828">✗ Manual reconciliation  ✗ Version control issues</text>
  <text x="540" y="1242" font-size="9" fill="#C62828">✗ Staging reload failures  ✗ Offshore misalignment</text>

  <!-- 3. Exception-Based Workflow -->
  <rect x="905" y="1115" width="350" height="145" rx="6" fill="#B2DFDB" stroke="#00695C" stroke-width="1"/>
  <text x="1080" y="1137" text-anchor="middle" font-size="13" font-weight="bold" fill="#004D40">3. Exception-Based Workflow</text>
  <text x="920" y="1157" font-size="10">• Only Step 3 + flagged exceptions</text>
  <text x="935" y="1172" font-size="10">require HITL review</text>
  <text x="920" y="1192" font-size="10">• Step 1 matches bypass UAT</text>
  <text x="935" y="1207" font-size="10">once approved</text>
  <text x="920" y="1227" font-size="10">• Step 2 records systematically</text>
  <text x="935" y="1242" font-size="10">created and audited</text>

  <text x="1080" y="1265" text-anchor="middle" font-size="11" font-weight="bold" fill="#004D40">→ Eliminates multiple UAT cycles</text>

  <!-- Arrow: Snowflake → Learning -->
  <line x1="750" y1="1380" x2="750" y2="1410" stroke="#7B1FA2" stroke-width="2" marker-end="url(#arrow-purple)"/>

  <!-- ======== CONTINUOUS LEARNING MODEL ======== -->
  <rect x="120" y="1420" width="1260" height="165" rx="10" fill="#e1d5e7" stroke="#7B1FA2" stroke-width="2" filter="url(#shadow)"/>
  <text x="750" y="1448" text-anchor="middle" font-size="16" font-weight="bold" fill="#4A148C">4. Continuous Learning Model — Every HITL Decision Improves the System</text>

  <rect x="145" y="1465" width="260" height="80" rx="6" fill="#CE93D8" stroke="#7B1FA2" stroke-width="1"/>
  <text x="275" y="1485" text-anchor="middle" font-size="11" font-weight="bold">Feed Normalization Rules</text>
  <text x="160" y="1502" font-size="9">Each decision updates name/address</text>
  <text x="160" y="1515" font-size="9">normalization to handle new patterns</text>

  <rect x="435" y="1465" width="260" height="80" rx="6" fill="#CE93D8" stroke="#7B1FA2" stroke-width="1"/>
  <text x="565" y="1485" text-anchor="middle" font-size="11" font-weight="bold">Update Matching Thresholds</text>
  <text x="450" y="1502" font-size="9">Reviewer overrides refine confidence</text>
  <text x="450" y="1515" font-size="9">thresholds for deterministic matching</text>

  <rect x="725" y="1465" width="260" height="80" rx="6" fill="#CE93D8" stroke="#7B1FA2" stroke-width="1"/>
  <text x="855" y="1485" text-anchor="middle" font-size="11" font-weight="bold">Expand Cleanup Rule Library</text>
  <text x="740" y="1502" font-size="9">BA cleanup rules captured</text>
  <text x="740" y="1515" font-size="9">systematically — reusable across customers</text>

  <rect x="1015" y="1465" width="260" height="80" rx="6" fill="#CE93D8" stroke="#7B1FA2" stroke-width="1"/>
  <text x="1145" y="1485" text-anchor="middle" font-size="11" font-weight="bold">Improve Match Precision</text>
  <text x="1030" y="1502" font-size="9">Over time: fewer Step 3 records,</text>
  <text x="1030" y="1515" font-size="9">higher confidence, fewer full reviews</text>

  <!-- Feedback loop arrow -->
  <path d="M 1380 1502 L 1430 1502 L 1430 140 L 1380 140" fill="none" stroke="#7B1FA2" stroke-width="2" stroke-dasharray="8 4" marker-end="url(#arrow-purple)"/>
  <text x="1440" y="820" font-size="11" font-weight="bold" fill="#7B1FA2" transform="rotate(90, 1440, 820)">Feedback Loop</text>

  <!-- ======== STRATEGIC IMPACT ======== -->
  <rect x="120" y="1620" width="1260" height="175" rx="10" fill="#f5f5f5" stroke="#333" stroke-width="1.5" stroke-dasharray="4 3"/>
  <text x="750" y="1648" text-anchor="middle" font-size="16" font-weight="bold" fill="#333">Strategic Impact</text>

  <rect x="145" y="1665" width="370" height="30" rx="5" fill="#E8F5E9" stroke="#2E7D32" stroke-width="1"/>
  <text x="155" y="1685" font-size="11"><tspan font-weight="bold">✓</tspan> Eliminate Excel-based X-ref preparation</text>

  <rect x="540" y="1665" width="370" height="30" rx="5" fill="#E8F5E9" stroke="#2E7D32" stroke-width="1"/>
  <text x="550" y="1685" font-size="11"><tspan font-weight="bold">✓</tspan> Systematically capture BA cleanup logic</text>

  <rect x="935" y="1665" width="370" height="30" rx="5" fill="#E8F5E9" stroke="#2E7D32" stroke-width="1"/>
  <text x="945" y="1685" font-size="11"><tspan font-weight="bold">✓</tspan> Reduce UAT fatigue and rework</text>

  <rect x="145" y="1705" width="370" height="30" rx="5" fill="#E8F5E9" stroke="#2E7D32" stroke-width="1"/>
  <text x="155" y="1725" font-size="11"><tspan font-weight="bold">✓</tspan> Build confidence in the matching process</text>

  <rect x="540" y="1705" width="370" height="30" rx="5" fill="#E8F5E9" stroke="#2E7D32" stroke-width="1"/>
  <text x="550" y="1725" font-size="11"><tspan font-weight="bold">✓</tspan> Create reusable logic across all customers</text>

  <rect x="935" y="1705" width="370" height="30" rx="5" fill="#C8E6C9" stroke="#2E7D32" stroke-width="1.5"/>
  <text x="945" y="1725" font-size="11" font-weight="bold">✓ Snowflake = single source of truth</text>

  <!-- Missing component callout -->
  <rect x="220" y="1750" width="1060" height="30" rx="5" fill="#FFCDD2" stroke="#C62828" stroke-width="1.5"/>
  <text x="750" y="1770" text-anchor="middle" font-size="11" font-weight="bold" fill="#C62828">⚠ Missing Component Today: A structured feedback mechanism across all three steps — currently relies on Excel back-and-forth</text>

</svg>
